<?xml version="1.0" encoding="UTF-8"?> <!-- Generator: Adobe Illustrator 25.4.1, SVG Export Plug-In . SVG Version: 6.00 Build 0) --> <svg xmlns="http://www.w3.org/2000/svg" xmlns:xlink="http://www.w3.org/1999/xlink" id="Слой_1" x="0px" y="0px" viewBox="0 0 694 290" style="enable-background:new 0 0 694 290;" xml:space="preserve"> <style type="text/css"> .st0{fill:#DD4912;} </style> <g> <path class="st0" d="M175.95,191.62c-14.47,14.34-32.58,21.51-54.32,21.51c-21.74,0-39.78-7.13-54.12-21.4 C53.17,177.46,46,160,46,139.34c0-20.52,7.24-37.95,21.71-52.29c14.47-14.34,32.58-21.51,54.32-21.51 c21.74,0,39.78,7.14,54.12,21.41c14.33,14.27,21.5,31.73,21.5,52.39C197.65,159.86,190.42,177.29,175.95,191.62z M91.05,171.14 c8.15,8.7,18.48,13.05,30.98,13.05c12.5,0,22.76-4.31,30.78-12.95c8.02-8.63,12.03-19.26,12.03-31.9c0-12.5-4.08-23.1-12.23-31.8 c-8.15-8.7-18.48-13.05-30.98-13.05c-12.5,0-22.76,4.32-30.78,12.94c-8.02,8.63-12.03,19.26-12.03,31.9 C78.82,151.85,82.89,162.45,91.05,171.14z"></path> <path class="st0" d="M331.37,240.44v-29.76H225.58V68h31.39v114.35h56.26V68h31.39v114.35h16.92l-4.08,58.09H331.37z"></path> <path class="st0" d="M383.55,210.68V68h58.3c16.85,0,30.17,4.56,39.95,13.66c9.78,9.11,14.68,21.13,14.68,36.08 c0,15.9-5.44,28.23-16.31,37c-10.87,8.77-24.66,13.15-41.38,13.15h-23.85v42.81H383.55z M414.94,139.95h24.87 c7.75,0,13.83-2.04,18.24-6.11c4.41-4.08,6.62-9.38,6.62-15.9c0-6.93-2.24-12.26-6.73-16c-4.48-3.74-10.74-5.61-18.75-5.61h-24.26 V139.95z"></path> <path class="st0" d="M519.72,210.68V68h66.25c16.44,0,28.88,4.21,37.3,12.64c6.52,6.52,9.78,14.75,9.78,24.66 c0,13.45-6.25,23.71-18.75,30.78c8.83,3.4,15.49,7.85,19.98,13.35c4.49,5.5,6.73,12.88,6.73,22.12c0,12.78-4.76,22.49-14.27,29.15 c-9.51,6.66-22.56,9.99-39.14,9.99H519.72z M550.29,125.68h28.95c15.08,0,22.63-5.16,22.63-15.49c0-4.75-1.77-8.39-5.3-10.91 c-3.54-2.51-8.63-3.77-15.29-3.77h-30.98V125.68z M550.29,183.16h37.3c14.81,0,22.22-5.3,22.22-15.9 c0-10.32-7.75-15.49-23.24-15.49h-36.28V183.16z"></path> </g> </svg> 